<?xml version="1.0" encoding="UTF-8"?><svg id="Layer_1" xmlns="http://www.w3.org/2000/svg" xmlns:xlink="http://www.w3.org/1999/xlink" viewBox="0 0 1700 444"><defs><style>.cls-1{fill:url(#linear-gradient-2);}.cls-2{fill:url(#linear-gradient-6);}.cls-3{fill:url(#linear-gradient-11);}.cls-4{fill:url(#linear-gradient-10);}.cls-5{fill:#f26622;}.cls-6{fill:url(#linear-gradient-5);}.cls-7{fill:url(#linear-gradient-7);}.cls-8{fill:url(#linear-gradient-9);}.cls-9{fill:url(#linear-gradient-3);}.cls-10{fill:url(#linear-gradient);}.cls-11{fill:#231f20;}.cls-12{fill:url(#linear-gradient-4);}.cls-13{fill:url(#linear-gradient-8);}.cls-14{fill:url(#linear-gradient-12);}.cls-15{fill:url(#linear-gradient-13);}</style><linearGradient id="linear-gradient" x1="1353.14" y1="341.33" x2="1405.02" y2="342.77" gradientUnits="userSpaceOnUse"><stop offset="0" stop-color="#fff"/><stop offset=".16" stop-color="#f9f9f9"/><stop offset=".37" stop-color="#e9e9ea"/><stop offset=".61" stop-color="#cfcfd1"/><stop offset=".86" stop-color="#aaacae"/><stop offset="1" stop-color="#939598"/></linearGradient><linearGradient id="linear-gradient-2" x1="45.89" y1="147.25" x2="198.05" y2="144.3" gradientUnits="userSpaceOnUse"><stop offset="0" stop-color="#fff"/><stop offset=".24" stop-color="#fbfbfc"/><stop offset=".43" stop-color="#f2f2f2"/><stop offset=".59" stop-color="#e1e2e3"/><stop offset=".75" stop-color="#cacbcc"/><stop offset=".9" stop-color="#acaeb0"/><stop offset="1" stop-color="#939598"/></linearGradient><linearGradient id="linear-gradient-3" x1="230.72" y1="209.96" x2="338.64" y2="143.32" gradientUnits="userSpaceOnUse"><stop offset="0" stop-color="#fff"/><stop offset=".21" stop-color="#fbfbfb"/><stop offset=".4" stop-color="#f0f0f1"/><stop offset=".58" stop-color="#dedfdf"/><stop offset=".76" stop-color="#c4c5c7"/><stop offset=".92" stop-color="#a4a5a8"/><stop offset="1" stop-color="#939598"/></linearGradient><linearGradient id="linear-gradient-4" x1="331.33" y1="140.66" x2="452.23" y2="209.07" gradientUnits="userSpaceOnUse"><stop offset="0" stop-color="#fff"/><stop offset=".23" stop-color="#fbfbfb"/><stop offset=".41" stop-color="#f1f1f2"/><stop offset=".59" stop-color="#e0e0e1"/><stop offset=".75" stop-color="#c8c9ca"/><stop offset=".91" stop-color="#a9aaad"/><stop offset="1" stop-color="#939598"/></linearGradient><linearGradient id="linear-gradient-5" x1="489.82" y1="141.95" x2="622.43" y2="141.95" gradientUnits="userSpaceOnUse"><stop offset="0" stop-color="#fff"/><stop offset=".36" stop-color="#fcfcfc"/><stop offset=".53" stop-color="#f5f5f5"/><stop offset=".66" stop-color="#e8e8e9"/><stop offset=".78" stop-color="#d5d6d7"/><stop offset=".88" stop-color="#bdbec0"/><stop offset=".97" stop-color="#a0a2a4"/><stop offset="1" stop-color="#939598"/></linearGradient><linearGradient id="linear-gradient-6" x1="644.29" y1="170.06" x2="765.12" y2="170.06" gradientUnits="userSpaceOnUse"><stop offset="0" stop-color="#fff"/><stop offset=".24" stop-color="#fbfbfc"/><stop offset=".42" stop-color="#f2f2f2"/><stop offset=".59" stop-color="#e1e1e2"/><stop offset=".75" stop-color="#c9cacc"/><stop offset=".9" stop-color="#abadaf"/><stop offset="1" stop-color="#939598"/></linearGradient><linearGradient id="linear-gradient-7" x1="778.28" y1="199.78" x2="857.7" y2="114.86" gradientUnits="userSpaceOnUse"><stop offset="0" stop-color="#fff"/><stop offset=".24" stop-color="#fbfbfc"/><stop offset=".42" stop-color="#f2f2f2"/><stop offset=".59" stop-color="#e1e2e3"/><stop offset=".75" stop-color="#cacbcc"/><stop offset=".9" stop-color="#acaeb0"/><stop offset="1" stop-color="#939598"/></linearGradient><linearGradient id="linear-gradient-8" x1="926.55" y1="145.8" x2="1105.04" y2="145.8" gradientUnits="userSpaceOnUse"><stop offset="0" stop-color="#fff"/><stop offset=".18" stop-color="#fafafa"/><stop offset=".38" stop-color="#eceded"/><stop offset=".58" stop-color="#d6d7d8"/><stop offset=".8" stop-color="#b6b8ba"/><stop offset="1" stop-color="#939598"/></linearGradient><linearGradient id="linear-gradient-9" x1="1107.42" y1="141.47" x2="1172.04" y2="141.47" gradientUnits="userSpaceOnUse"><stop offset="0" stop-color="#fff"/><stop offset=".18" stop-color="#fafafa"/><stop offset=".37" stop-color="#ececed"/><stop offset=".59" stop-color="#d5d6d7"/><stop offset=".8" stop-color="#b6b7b9"/><stop offset="1" stop-color="#939598"/></linearGradient><linearGradient id="linear-gradient-10" x1="1198.86" y1="139.91" x2="1241.62" y2="139.91" gradientUnits="userSpaceOnUse"><stop offset="0" stop-color="#fff"/><stop offset=".16" stop-color="#f8f8f8"/><stop offset=".38" stop-color="#e6e7e7"/><stop offset=".63" stop-color="#c9cacb"/><stop offset=".92" stop-color="#a0a2a5"/><stop offset="1" stop-color="#939598"/></linearGradient><linearGradient id="linear-gradient-11" x1="1235.03" y1="149.77" x2="1361.63" y2="207.17" gradientUnits="userSpaceOnUse"><stop offset="0" stop-color="#fff"/><stop offset=".19" stop-color="#fbfbfb"/><stop offset=".39" stop-color="#efefef"/><stop offset=".58" stop-color="#dbdbdc"/><stop offset=".77" stop-color="#bfc0c2"/><stop offset=".96" stop-color="#9b9da0"/><stop offset="1" stop-color="#939598"/></linearGradient><linearGradient id="linear-gradient-12" x1="1397.63" y1="170.06" x2="1518.47" y2="170.06" gradientUnits="userSpaceOnUse"><stop offset="0" stop-color="#fff"/><stop offset=".19" stop-color="#fafafb"/><stop offset=".38" stop-color="#eeeeef"/><stop offset=".58" stop-color="#dadadb"/><stop offset=".78" stop-color="#bdbec0"/><stop offset=".97" stop-color="#989a9d"/><stop offset="1" stop-color="#939598"/></linearGradient><linearGradient id="linear-gradient-13" x1="1520.27" y1="121.56" x2="1631.15" y2="177.39" gradientUnits="userSpaceOnUse"><stop offset="0" stop-color="#fff"/><stop offset=".31" stop-color="#fcfcfc"/><stop offset=".48" stop-color="#f4f4f4"/><stop offset=".63" stop-color="#e6e6e7"/><stop offset=".76" stop-color="#d2d2d4"/><stop offset=".88" stop-color="#b8b9bb"/><stop offset=".98" stop-color="#989a9d"/><stop offset="1" stop-color="#939598"/></linearGradient></defs><rect class="cls-11" x="-1.76" y="-2.12" width="1703.53" height="448.24"/><g><polygon class="cls-10" points="1393.16 412.37 1393.16 271.34 1367.17 271.34 1356.07 277.12 1356.07 291.33 1367.4 291.33 1367.4 412.82 1393.16 412.37"/><path class="cls-5" d="M1647,380.18c-19.6,31.55-61.1,42.38-93.67,24.53-27.01-14.81-39.96-44.37-35.16-73.08,.05-.27,.35-.42,.59-.29l25.09,13.85c.87,14.71,9.29,28.64,23.55,35.86,19.48,9.85,43.72,3.27,55.5-15.11,13.52-21.1,6.27-48.89-15.31-60.85-16.26-9.01-35.83-6.36-49.07,5.18l-24.51-13.58c21.35-24.61,57.69-31.83,87.33-15.4,35.09,19.44,47.08,64.4,25.66,98.89Z"/><g><path class="cls-5" d="M1404.96,354.39c4.12,22.97,19.57,43.29,42.46,52.72-22.84-9.47-38.28-29.76-42.46-52.72Z"/><path class="cls-5" d="M1498.31,275.2c32.28,11.51,51.01,44.07,46.24,76.73l-27.4-9.77c0-.16,0-.32,0-.48-.1-17.57-11.04-33.99-28.55-40.24s-36.38-.44-47.56,13.1c-3.1,3.75-5.62,8.1-7.35,12.95-2.84,7.96-3.19,16.21-1.44,23.89,3.14,13.87,13.1,25.89,27.49,31.02,14.4,5.13,29.71,2.13,40.92-6.63,.03-.03,.07-.06,.1-.08l29,10.34c-16.13,20.13-42.44,30.2-68.4,25.21-.1-.02-.21-.04-.31-.06-.74-.14-1.48-.29-2.22-.47-.91-.21-1.83-.43-2.74-.67-.44-.12-.87-.24-1.31-.36-.9-.27-1.8-.55-2.71-.85-.41-.14-.82-.28-1.24-.43l-.16-.06c-.52-.19-1.04-.38-1.55-.58-.57-.22-1.13-.44-1.69-.67-.35-.15-.71-.3-1.06-.45-21.55-9.35-36.32-28.4-40.98-50.12-.14-.71-.29-1.42-.42-2.15-.19-1.13-.38-2.27-.53-3.41-.07-.51-.13-1.03-.19-1.55-.05-.45-.09-.9-.13-1.35s-.08-.9-.11-1.35c-.67-9.45,.57-19.18,3.95-28.66,13.12-36.78,53.57-55.97,90.36-42.86Z"/></g></g><g><path class="cls-1" d="M158.07,60.51h40.36V231.08h-40.36v-67.74H83.36v67.74H43V60.51h40.36v67.74h74.71V60.51Z"/><path class="cls-9" d="M344.97,174.38v5.77h-82.88c2.56,15.06,13.53,22.58,32.91,22.58,13.29,0,25.38-2.32,36.27-6.97l7.69,28.83c-12.97,5.93-28.51,8.89-46.6,8.89-20.34,0-36.8-5.84-49.37-17.54-12.57-11.69-18.86-26.9-18.86-45.64,0-19.86,5.77-35.43,17.3-46.72,11.53-11.29,26.34-16.94,44.44-16.94s31.67,5.89,42.64,17.66c10.97,11.77,16.46,28.47,16.46,50.09Zm-82.16-19.94h44.68c-.8-5.92-3.33-10.69-7.57-14.29-4.25-3.6-8.93-5.41-14.05-5.41-5.77,0-10.65,1.76-14.65,5.29-4.01,3.52-6.81,8.33-8.41,14.41Z"/><path class="cls-12" d="M447.3,109.04h38.44l-46.84,120.83c-6.89,18.42-15.1,31.83-24.62,40.24-9.53,8.41-22.06,12.61-37.6,12.61h-4.56l-6.73-32.67h1.2c8.17,0,15.01-1.68,20.54-5.04,5.52-3.36,10.21-9.45,14.05-18.26l-49.73-117.71h40.6l28.59,76.15,26.67-76.15Z"/><path class="cls-6" d="M585.19,50.42h37.24V231.08h-37.24v-16.34c-8.97,12.49-21.78,18.74-38.44,18.74s-29.91-5.6-40.72-16.82c-10.81-11.21-16.22-26.42-16.22-45.64s5.92-34.75,17.78-46.6,27.06-17.78,45.64-17.78c10.41,0,21.06,2.32,31.95,6.97V50.42Zm-29.31,149.18c8.65,0,15.74-3.08,21.26-9.25,5.52-6.16,8.2-13.97,8.05-23.42v-20.42c-8.65-4.32-17.86-6.49-27.63-6.49-8.97,0-16.09,2.85-21.38,8.53-5.28,5.69-7.93,13.18-7.93,22.46,0,8.65,2.6,15.58,7.81,20.78,5.2,5.21,11.81,7.81,19.82,7.81Z"/><path class="cls-2" d="M644.29,165.74v-5.77h82.88c-2.56-15.05-13.54-22.58-32.91-22.58-13.3,0-25.39,2.32-36.28,6.97l-7.69-28.83c12.97-5.92,28.51-8.89,46.6-8.89,20.34,0,36.79,5.85,49.37,17.54,12.57,11.69,18.86,26.91,18.86,45.64,0,19.86-5.77,35.43-17.3,46.73-11.53,11.29-26.35,16.94-44.44,16.94s-31.67-5.89-42.64-17.66c-10.97-11.77-16.45-28.47-16.45-50.09Zm82.16,19.94h-44.68c.8,5.93,3.32,10.69,7.57,14.29,4.24,3.6,8.93,5.41,14.05,5.41,5.77,0,10.65-1.76,14.65-5.29,4-3.52,6.8-8.32,8.41-14.41Z"/><path class="cls-7" d="M863.37,107.84l5.04,33.15h-3.6c-16.98,0-30.43,6.25-40.36,18.74v71.35h-36.75V109.04h36.75v19.94c7.21-14.09,18.82-21.14,34.83-21.14h4.08Z"/><path class="cls-13" d="M1015.19,58.11c26.1,0,47.6,8.09,64.5,24.26,16.9,16.18,25.34,37.08,25.34,62.7s-8.69,47.97-26.07,64.14c-17.38,16.18-38.8,24.26-64.26,24.26s-47.93-8.05-64.02-24.14-24.14-38.8-24.14-68.1v-6.73h135.25c-2.08-12.49-7.21-22.06-15.37-28.71-8.17-6.64-18.66-9.97-31.47-9.97-18.9,0-35.79,5.61-50.69,16.82l-22.1-30.99c19.86-15.69,44.2-23.54,73.03-23.54Zm-.72,139.33c25.62,0,41.08-10.49,46.36-31.47h-90.09c1.28,9.77,5.6,17.46,12.97,23.06,7.36,5.61,17.61,8.41,30.75,8.41Z"/><path class="cls-8" d="M1186.96,232.52c-20.5,0-35.47-4.24-44.92-12.73-9.45-8.49-14.17-21.86-14.17-40.12V50.42h37.24v123.96c0,7.69,2.36,13.57,7.09,17.66,4.72,4.08,11.49,6.13,20.3,6.13l-4.08,34.35h-1.44Z"/><path class="cls-4" d="M1242.57,85.5c-4.08,4.17-9.17,6.25-15.25,6.25s-11.17-2.08-15.25-6.25c-4.08-4.16-6.13-9.21-6.13-15.13s2.04-11.21,6.13-15.37c4.08-4.16,9.17-6.25,15.25-6.25s11.17,2.08,15.25,6.25c4.08,4.17,6.13,9.29,6.13,15.37s-2.04,10.97-6.13,15.13Zm-34.47,145.58V109.04h37.24v122.04h-37.24Z"/><path class="cls-3" d="M1355.11,109.04h38.44l-46.84,120.83c-6.89,18.42-15.1,31.83-24.62,40.24-9.53,8.41-22.06,12.61-37.6,12.61h-4.56l-6.73-32.67h1.2c8.17,0,15.02-1.68,20.54-5.04,5.53-3.36,10.21-9.45,14.05-18.26l-49.73-117.71h40.6l28.59,76.15,26.67-76.15Z"/><path class="cls-14" d="M1518.47,174.38v5.77h-82.88c2.56,15.06,13.53,22.58,32.91,22.58,13.29,0,25.38-2.32,36.27-6.97l7.69,28.83c-12.97,5.93-28.51,8.89-46.6,8.89-20.34,0-36.8-5.84-49.37-17.54-12.57-11.69-18.86-26.9-18.86-45.64,0-19.86,5.77-35.43,17.3-46.72,11.53-11.29,26.34-16.94,44.44-16.94s31.67,5.89,42.64,17.66c10.97,11.77,16.45,28.47,16.45,50.09Zm-82.16-19.94h44.68c-.8-5.92-3.33-10.69-7.57-14.29-4.25-3.6-8.93-5.41-14.05-5.41-5.77,0-10.65,1.76-14.65,5.29-4,3.52-6.81,8.33-8.41,14.41Z"/><path class="cls-15" d="M1621.04,109.04h37.96l-48.77,122.04h-36.03l-49.25-122.04h40.84l27.63,77.11,27.63-77.11Z"/></g></svg>